<svg width="133" height="133" viewBox="0 0 133 133" fill="none" xmlns="http://www.w3.org/2000/svg">
<path d="M66.5 0C29.7641 0 0 29.7641 0 66.5C0 103.236 29.7641 133 66.5 133C103.236 133 133 103.236 133 66.5C133 29.7641 103.236 0 66.5 0ZM66.5 120.129C36.87 120.129 12.871 96.13 12.871 66.5C12.871 36.87 36.87 12.871 66.5 12.871C96.13 12.871 120.129 36.87 120.129 66.5C120.129 96.13 96.13 120.129 66.5 120.129ZM93.7972 49.8214L77.1186 66.5L93.7972 83.1786C95.0575 84.4389 95.0575 86.4768 93.7972 87.7371L87.7371 93.7972C86.4768 95.0575 84.4389 95.0575 83.1786 93.7972L66.5 77.1186L49.8214 93.7972C48.5611 95.0575 46.5232 95.0575 45.2629 93.7972L39.2028 87.7371C37.9425 86.4768 37.9425 84.4389 39.2028 83.1786L55.8815 66.5L39.2028 49.8214C37.9425 48.5611 37.9425 46.5232 39.2028 45.2629L45.2629 39.2028C46.5232 37.9425 48.5611 37.9425 49.8214 39.2028L66.5 55.8815L83.1786 39.2028C84.4389 37.9425 86.4768 37.9425 87.7371 39.2028L93.7972 45.2629C95.0575 46.5232 95.0575 48.5611 93.7972 49.8214Z" fill="#3D3D3D"/>
</svg>
