<svg width="16" height="16" viewBox="0 0 16 16" fill="none" xmlns="http://www.w3.org/2000/svg">
<path d="M4 2V10" stroke="black" stroke-width="2" stroke-linecap="round" stroke-linejoin="round"/>
<path d="M11 12C12.1046 12 13 11.1046 13 10C13 8.89543 12.1046 8 11 8C9.89543 8 9 8.89543 9 10C9 11.1046 9.89543 12 11 12Z" stroke="black" stroke-width="2" stroke-linecap="round" stroke-linejoin="round"/>
<path d="M4 14C5.10457 14 6 13.1046 6 12C6 10.8954 5.10457 10 4 10C2.89543 10 2 10.8954 2 12C2 13.1046 2.89543 14 4 14Z" stroke="black" stroke-width="2" stroke-linecap="round" stroke-linejoin="round"/>
<path d="M5.00004 2.09079C6.4916 1.53628 8.14235 1.597 9.58914 2.2596C11.0359 2.92219 12.1602 4.13238 12.7148 5.62394" stroke="black" stroke-width="2" stroke-linecap="round" stroke-linejoin="round"/>
</svg>
