<svg width="32" height="30" viewBox="0 0 32 30" fill="none" xmlns="http://www.w3.org/2000/svg">
<path d="M16.0001 29.25L13.7042 27.1917C11.039 24.7903 8.8355 22.7187 7.09383 20.9771C5.35216 19.2354 3.96675 17.6719 2.93758 16.2864C1.90841 14.901 1.18932 13.6278 0.78029 12.4667C0.371262 11.3055 0.166748 10.118 0.166748 8.90415C0.166748 6.4236 0.997998 4.35207 2.6605 2.68957C4.323 1.02707 6.39453 0.19582 8.87508 0.19582C10.2473 0.19582 11.5536 0.486098 12.7938 1.06665C14.0341 1.64721 15.1029 2.46526 16.0001 3.52082C16.8973 2.46526 17.9661 1.64721 19.2063 1.06665C20.4466 0.486098 21.7529 0.19582 23.1251 0.19582C25.6056 0.19582 27.6772 1.02707 29.3397 2.68957C31.0022 4.35207 31.8334 6.4236 31.8334 8.90415C31.8334 10.118 31.6289 11.3055 31.2199 12.4667C30.8108 13.6278 30.0917 14.901 29.0626 16.2864C28.0334 17.6719 26.648 19.2354 24.9063 20.9771C23.1647 22.7187 20.9612 24.7903 18.2959 27.1917L16.0001 29.25ZM16.0001 24.975C18.5334 22.7055 20.6181 20.7594 22.2542 19.1364C23.8904 17.5135 25.1834 16.1017 26.1334 14.901C27.0834 13.7003 27.7431 12.6316 28.1126 11.6948C28.482 10.758 28.6667 9.82776 28.6667 8.90415C28.6667 7.32082 28.139 6.00138 27.0834 4.94582C26.0279 3.89026 24.7084 3.36249 23.1251 3.36249C21.8848 3.36249 20.7369 3.71214 19.6813 4.41144C18.6258 5.11075 17.9001 6.00138 17.5042 7.08332H14.4959C14.1001 6.00138 13.3744 5.11075 12.3188 4.41144C11.2633 3.71214 10.1154 3.36249 8.87508 3.36249C7.29175 3.36249 5.9723 3.89026 4.91675 4.94582C3.86119 6.00138 3.33341 7.32082 3.33341 8.90415C3.33341 9.82776 3.51814 10.758 3.88758 11.6948C4.25703 12.6316 4.91675 13.7003 5.86675 14.901C6.81675 16.1017 8.1098 17.5135 9.74591 19.1364C11.382 20.7594 13.4667 22.7055 16.0001 24.975Z" fill="#1C1B1F"/>
</svg>
